<svg xmlns="http://www.w3.org/2000/svg" width="88" height="88" viewBox="0 0 88 88"><defs><mask id="vptpb" width="2" height="2" x="-1" y="-1"><path fill="#fff" d="M14 14h60v60H14z"/><path d="M44 14C27.43 14 14 27.43 14 44c0 16.568 13.431 30 30 30 16.569 0 30-13.432 30-30 0-16.569-13.431-30-30-30z"/></mask><filter id="vptpa" width="120" height="120" x="-16" y="-16" filterUnits="userSpaceOnUse"><feOffset in="SourceGraphic" result="FeOffset1040Out"/><feGaussianBlur in="FeOffset1040Out" result="FeGaussianBlur1041Out" stdDeviation="8 8"/></filter></defs><g><g><g filter="url(#vptpa)"><path fill="none" d="M44 14C27.43 14 14 27.43 14 44c0 16.568 13.431 30 30 30 16.569 0 30-13.432 30-30 0-16.569-13.431-30-30-30z" mask="url(&quot;#vptpb&quot;)"/><path fill-opacity=".1" d="M44 14C27.43 14 14 27.43 14 44c0 16.568 13.431 30 30 30 16.569 0 30-13.432 30-30 0-16.569-13.431-30-30-30z"/></g><path fill="#fff" d="M44 14C27.43 14 14 27.43 14 44c0 16.568 13.431 30 30 30 16.569 0 30-13.432 30-30 0-16.569-13.431-30-30-30z"/></g><g><path fill="#4f1f12" d="M34.3 43.319l6.547-6.064c.399-.37 1.047-.37 1.446 0 .4.37.4.97 0 1.34l-4.8 4.446h17.484c.565 0 1.023.424 1.023.948 0 .523-.458.947-1.023.947H37.493l4.8 4.446c.4.37.4.97 0 1.34-.2.185-.462.277-.723.277-.262 0-.524-.092-.724-.277L34.3 44.66a.9.9 0 0 1 0-1.34z"/></g></g></svg>