<svg xmlns="http://www.w3.org/2000/svg" width="88" height="88" viewBox="0 0 88 88"><defs><mask id="akb6b" width="2" height="2" x="-1" y="-1"><path fill="#fff" d="M14 14h60v60H14z"/><path d="M44 14c16.568 0 30 13.431 30 30 0 16.568-13.432 30-30 30-16.569 0-30-13.432-30-30 0-16.569 13.431-30 30-30z"/></mask><filter id="akb6a" width="120" height="120" x="-16" y="-16" filterUnits="userSpaceOnUse"><feOffset in="SourceGraphic" result="FeOffset1065Out"/><feGaussianBlur in="FeOffset1065Out" result="FeGaussianBlur1066Out" stdDeviation="8 8"/></filter></defs><g><g><g filter="url(#akb6a)"><path fill="none" d="M44 14c16.568 0 30 13.431 30 30 0 16.568-13.432 30-30 30-16.569 0-30-13.432-30-30 0-16.569 13.431-30 30-30z" mask="url(&quot;#akb6b&quot;)"/><path fill-opacity=".1" d="M44 14c16.568 0 30 13.431 30 30 0 16.568-13.432 30-30 30-16.569 0-30-13.432-30-30 0-16.569 13.431-30 30-30z"/></g><path fill="#4f1f12" d="M44 14c16.568 0 30 13.431 30 30 0 16.568-13.432 30-30 30-16.569 0-30-13.432-30-30 0-16.569 13.431-30 30-30z"/></g><g><path fill="#fff" d="M53.7 43.319l-6.547-6.064c-.4-.37-1.047-.37-1.446 0-.4.37-.4.97 0 1.34l4.8 4.446H33.023c-.565 0-1.023.424-1.023.948 0 .523.458.947 1.023.947h17.484l-4.8 4.446a.9.9 0 0 0 0 1.34c.2.185.461.277.723.277.262 0 .524-.092.724-.277L53.7 44.66a.9.9 0 0 0 0-1.34z"/></g></g></svg>